<svg xmlns="http://www.w3.org/2000/svg" width="24" height="24">
<path d="M7.293 4.707 14.586 12l-7.293 7.293 1.414 1.414L17.414 12 8.707 3.293 7.293 4.707z"/></svg>



<svg xmlns="http://www.w3.org/2000/svg" width="11" height="20" id="arrow">
<path fill-rule="evenodd" d="M.366 19.708c.405.39 1.06.39 1.464 0l8.563-8.264a1.95 1.95 0 0 0 0-2.827L1.768.292A1.063 1.063 0 0 0 .314.282a.976.976 0 0 0-.011 1.425l7.894 7.617a.975.975 0 0 1 0 1.414L.366 18.295a.974.974 0 0 0 0 1.413"></path></svg>


<svg xmlns="http://www.w3.org/2000/svg" height="16" width="16" viewBox="0 0 512 512"><!--!Font Awesome Free 6.5.1 by @fontawesome - https://fontawesome.com License - https://fontawesome.com/license/free Copyright 2023 Fonticons, Inc.--><path d="M192 32c0 17.7 14.3 32 32 32c123.7 0 224 100.3 224 224c0 17.7 14.3 32 32 32s32-14.3 32-32C512 128.9 383.1 0 224 0c-17.7 0-32 14.3-32 32zm0 96c0 17.7 14.3 32 32 32c70.7 0 128 57.3 128 128c0 17.7 14.3 32 32 32s32-14.3 32-32c0-106-86-192-192-192c-17.7 0-32 14.3-32 32zM96 144c0-26.5-21.5-48-48-48S0 117.5 0 144V368c0 79.5 64.5 144 144 144s144-64.5 144-144s-64.5-144-144-144H128v96h16c26.5 0 48 21.5 48 48s-21.5 48-48 48s-48-21.5-48-48V144z"/></svg>